<svg xmlns="http://www.w3.org/2000/svg" viewBox="0 0 24 24" fill="none" stroke="currentColor" stroke-width="1.5" stroke-linecap="round" stroke-linejoin="round">
  <!-- Shoulder L -->
  <path d="M2 6.5 L2 5 Q2 4 3.5 4 L8 4 Q9 4 9 5.5 L9 6.5"/>
  <!-- Shoulder R -->
  <path d="M15 6.5 L15 5.5 Q15 4 16 4 L20.5 4 Q22 4 22 5 L22 6.5"/>
  <!-- Body — angoli superiori arrotondati, angoli inferiori diagonali (forma GBA) -->
  <path d="M1 8.5 Q1 6.5 3 6.5 L21 6.5 Q23 6.5 23 8.5 L23 17.5 L21 19.5 L3 19.5 L1 17.5 Z"/>
  <!-- Schermo -->
  <rect x="7" y="8.5" width="7.5" height="6" rx="0.5"/>
  <!-- D-pad verticale -->
  <line x1="4" y1="10" x2="4" y2="13.5"/>
  <!-- D-pad orizzontale -->
  <line x1="2.5" y1="11.75" x2="5.5" y2="11.75"/>
  <!-- Tasto A -->
  <circle cx="20.5" cy="10.5" r="1"/>
  <!-- Tasto B -->
  <circle cx="19" cy="13" r="1"/>
  <!-- Select -->
  <line x1="9.5" y1="17.25" x2="11.5" y2="17.25"/>
  <!-- Start -->
  <line x1="12.5" y1="17.25" x2="14.5" y2="17.25"/>
</svg>
